#!OML:ASF F:\VICON\USERDATA\INSTALL\rory3\rory3.ASF
:FULLY-SPECIFIED
:DEGREES
216
root 3.88936 17.0245 -5.79871 286.404 80.3331 -88.9004
lowerback -1.85849 2.50233 -1.82195
upperback -4.6463 3.35877 -4.43159
thorax -3.58789 1.72153 -3.60505
lowerneck -15.344 -5.81803 -13.414
upperneck 27.6874 -8.22976 14.1843
head 12.9972 -3.13394 6.61396
rclavicle -5.52621e-014 2.8625e-014
rhumerus -12.9936 6.51322 -67.211
rradius 42.8288
rwrist 15.1261
rhand -29.8678 -42.3104
rfingers 7.12502
rthumb 176.81 107.734
lclavicle -5.52621e-014 2.8625e-014
lhumerus -26.4527 2.61922 50.6901
lradius 61.7898
lwrist 19.4498
lhand -40.0911 -755.563
lfingers 7.12502
lthumb -13.0556 -5.9914
rfemur -26.5874 1.06417 26.0033
rtibia 37.1703
rfoot -17.2719 -23.9715
rtoes -5.17298
lfemur -49.8047 14.2849 -11.2417
ltibia 48.3661
lfoot -11.8905 19.2252
ltoes -5.1688
217
root 3.87728 17.0057 -5.77036 290.01 80.6303 -85.1545
lowerback -2.13234 2.44787 -1.32896
upperback -4.638 3.29897 -4.52262
thorax -3.39488 1.67557 -3.95939
lowerneck -15.4492 -6.15016 -13.0246
upperneck 28.2374 -8.70894 13.6698
head 13.2871 -3.35651 6.27949
rclavicle -4.13472e-014 7.31528e-014
rhumerus -13.1813 6.28887 -69.0564
rradius 42.4481
rwrist 15.6498
rhand -29.8172 -41.6602
rfingers 7.12502
rthumb 176.859 108.383
lclavicle -4.13472e-014 7.31528e-014
lhumerus -27.0126 3.38252 50.6142
lradius 61.082
lwrist 19.1319
lhand -39.9444 -755.503
lfingers 7.12502
lthumb -12.9141 -5.92242
rfemur -26.5263 1.32063 25.5851
rtibia 37.1334
rfoot -17.6852 -23.5397
rtoes -4.12518
lfemur -49.126 13.7308 -10.8273
ltibia 48.3651
lfoot -12.78 17.6094
ltoes -7.60425
218
root 3.87283 17.0035 -5.75039 293.524 81.05 -81.2119
lowerback -2.17546 2.26745 -0.942065
upperback -4.55401 3.0603 -4.60651
thorax -3.27278 1.54284 -4.2573
lowerneck -15.2942 -6.33254 -12.8886
upperneck 28.6531 -9.00298 13.4733
head 13.4627 -3.49399 6.14852
rclavicle -2.38542e-015 -1.59028e-014
rhumerus -13.2233 6.15023 -71.0467
rradius 41.8666
rwrist 16.357
rhand -29.7083 -41.1146
rfingers 7.12502
rthumb 176.964 108.927
lclavicle -2.38542e-015 -1.59028e-014
lhumerus -27.9058 4.44447 50.3994
lradius 60.5039
lwrist 19.2793
lhand -39.6596 -755.46
lfingers 7.12502
lthumb -12.6397 -5.86212
rfemur -26.0267 1.84892 24.8733
rtibia 36.9387
rfoot -18.666 -22.9927
rtoes -1.37408
lfemur -48.0298 12.5168 -10.3764
ltibia 48.5695
lfoot -13.5628 16.2908
ltoes -11.8133
219
root 3.86749 17.005 -5.72496 296.972 81.4805 -77.2141
lowerback -2.08943 2.04473 -0.574722
upperback -4.42412 2.76063 -4.73983
thorax -3.18326 1.3797 -4.6021
lowerneck -15.0503 -6.39094 -12.8612
upperneck 28.8988 -9.14091 13.4785
head 13.5376 -3.55483 6.13993
rclavicle -2.36554e-014 9.22361e-014
rhumerus -13.2659 6.13097 -73.1798
rradius 41.3316
rwrist 16.4305
rhand -29.6367 -41.6165
rfingers 7.12502
rthumb 177.033 108.424
lclavicle -2.36554e-014 9.22361e-014
lhumerus -28.947 5.40615 50.2941
lradius 60.1173
lwrist 20.0103
lhand -40.0651 -755.497
lfingers 7.12502
lthumb -13.0306 -5.92383
rfemur -25.4422 2.37551 24.1341
rtibia 36.8421
rfoot -19.5902 -22.442
rtoes 1.28761
lfemur -46.7388 10.8338 -9.76296
ltibia 48.8214
lfoot -15.1814 14.4384
ltoes -13.7366
220
root 3.83158 16.9713 -5.70972 300.066 79.0896 -74.3676
lowerback -2.19908 2.37858 2.01773
upperback -4.72988 3.19716 -3.95127
thorax -3.31663 1.51116 -5.24674
lowerneck -14.9422 -6.58212 -13.1753
upperneck 29.3 -9.34273 13.384
head 13.7372 -3.68945 6.14761
rclavicle 7.7526e-015 -3.18055e-015
rhumerus -13.5893 6.39726 -74.7298
rradius 41.1268
rwrist 15.705
rhand -30.0564 -44.1789
rfingers 7.12502
rthumb 176.628 105.868
lclavicle 7.7526e-015 -3.18055e-015
lhumerus -30.2343 6.82012 51.0578
lradius 59.8183
lwrist 19.9961
lhand -41.0436 -755.983
lfingers 7.12502
lthumb -13.9736 -6.4731
rfemur -25.8957 3.38089 26.5389
rtibia 36.8466
rfoot -16.897 -23.7883
rtoes -5.62344
lfemur -46.3425 10.145 -6.08205
ltibia 49.2449
lfoot -17.5835 11.553
ltoes -9.49401
221
root 3.81356 16.9584 -5.68341 305.311 78.9249 -69.3414
lowerback -2.5389 2.43915 1.79384
upperback -4.97896 3.28565 -3.49344
thorax -3.41122 1.56672 -4.63296
lowerneck -14.7512 -6.9091 -13.7395
upperneck 29.8305 -9.64392 13.1415
head 14.0041 -3.91728 6.12666
rclavicle -9.54166e-015 -9.54166e-015
rhumerus -14.1004 7.20358 -75.8989
rradius 41.0546
rwrist 15.1869
rhand -30.418 -45.3213
rfingers 7.12502
rthumb 176.279 104.731
lclavicle -9.54166e-015 -9.54166e-015
lhumerus -31.572 7.80066 51.6073
lradius 59.3561
lwrist 20.3884
lhand -41.5468 -756.053
lfingers 7.12502
lthumb -14.4586 -6.57638
rfemur -26.4156 3.59552 26.3512
rtibia 36.9952
rfoot -16.1738 -23.591
rtoes -8.11424
lfemur -45.975 9.78029 -5.75771
ltibia 49.5461
lfoot -18.6373 9.75625
ltoes -11.2339
222
root 3.81935 16.9501 -5.66035 313.931 80.0412 -61.0647
lowerback -3.42554 2.36043 0.713255
upperback -5.15965 3.20144 -3.90477
thorax -3.14176 1.56802 -4.41618
lowerneck -14.3721 -7.23174 -13.7584
upperneck 30.1789 -10.1384 12.9971
head 14.1582 -4.1598 6.00437
rclavicle 6.75868e-015 -1.27222e-014
rhumerus -14.6609 7.18506 -77.5592
rradius 40.7908
rwrist 15.3075
rhand -30.9611 -46.3851
rfingers 7.12502
rthumb 175.754 103.677
lclavicle 6.75868e-015 -1.27222e-014
lhumerus -32.6294 8.68368 51.5545
lradius 58.8056
lwrist 20.7039
lhand -41.6025 -756.011
lfingers 7.12502
lthumb -14.5122 -6.53824
rfemur -27.3086 3.28984 24.4429
rtibia 37.5378
rfoot -16.8909 -22.5816
rtoes -7.47906
lfemur -45.5348 9.05854 -7.35953
ltibia 49.4907
lfoot -19.5782 8.56497
ltoes -14.7404
